<svg width="64" height="64" viewBox="0 0 64 64" fill="none" xmlns="http://www.w3.org/2000/svg">
<path d="M31.9648 0C49.657 0 64 14.327 64 32C64 49.673 49.657 64 31.9648 64C17.5272 63.9998 5.31984 54.4503 1.31934 41.335L13.4443 46.333C14.045 49.061 15.9274 51.4525 18.6924 52.6025C20.8676 53.5053 23.3124 53.5089 25.4902 52.6123C27.668 51.7157 29.4008 49.9929 30.3076 47.8213C30.7914 46.6645 31.0246 45.4183 30.9922 44.165L42.1973 36.1602L42.4727 36.165C49.1848 36.165 54.6404 30.6992 54.6406 23.9854C54.6406 17.2714 49.1949 11.8245 42.4727 11.8105C35.7634 11.8106 30.3047 17.2714 30.3047 23.9854H30.3145L30.3174 24.1426L22.4795 35.5176C21.2101 35.4596 19.9359 35.6827 18.7266 36.1797C18.2002 36.3934 17.698 36.6624 17.2275 36.9805L0.0136719 29.8926C0.0136719 29.8926 0.0128334 29.8941 0.0126953 29.8965C0.00829471 29.8891 0.00441208 29.8814 0 29.874C1.09718 13.1932 14.9887 0.00024187 31.9648 0ZM19.6787 37.9922C21.2584 37.3922 23.0546 37.3723 24.7344 38.0693C26.4362 38.7723 27.7378 40.0961 28.4346 41.7891C29.1313 43.482 29.1276 45.3492 28.4248 47.0352L28.2891 47.3574C26.727 50.6349 22.8515 52.1362 19.4697 50.7285C17.9209 50.0782 16.6655 48.8821 15.9424 47.3672L19.9033 49.0068C20.5152 49.2613 21.1712 49.3925 21.834 49.3936C22.4968 49.3946 23.1539 49.2652 23.7666 49.0127C24.3791 48.7602 24.9361 48.3902 25.4053 47.9229C25.8745 47.4553 26.2466 46.8994 26.501 46.2881C27.016 45.0526 27.0194 43.6635 26.5098 42.4258C26.0001 41.1881 25.0194 40.2025 23.7832 39.6865L19.6787 37.9922ZM42.4834 15.876C44.6342 15.8813 46.696 16.7376 48.2158 18.2578C49.7357 19.7781 50.5904 21.8388 50.5928 23.9873C50.5908 26.1361 49.7357 28.1962 48.2158 29.7168C46.6959 31.2375 44.6346 32.0943 42.4834 32.0996C40.3328 32.0937 38.2723 31.2371 36.7529 29.7168C35.2335 28.1962 34.3789 26.1357 34.377 23.9873C34.3793 21.8392 35.2336 19.779 36.7529 18.2588C38.2723 16.7386 40.333 15.8819 42.4834 15.876ZM42.4961 17.8789C40.88 17.8816 39.3308 18.5251 38.1895 19.668C37.0482 20.8108 36.4079 22.3595 36.4092 23.9736C36.4084 25.5878 37.048 27.1368 38.1895 28.2793C39.3309 29.4217 40.8803 30.065 42.4961 30.0674C44.1123 30.0657 45.6617 29.4227 46.8037 28.2803C47.9458 27.1377 48.5867 25.5883 48.5859 23.9736C48.5857 20.6089 45.8545 17.8791 42.4961 17.8789Z" fill="white"/>
</svg>