<svg width="128" height="128" viewBox="0 0 128 128" fill="none" xmlns="http://www.w3.org/2000/svg">
<rect width="128" height="128" rx="64" fill="#EAD4EF"/>
<path fill-rule="evenodd" clip-rule="evenodd" d="M110.475 93.4254C100.722 108.797 83.5524 119 64 119C33.6243 119 9 94.3757 9 64C9 33.6243 33.6243 9 64 9C94.3757 9 119 33.6243 119 64C119 66.4429 118.841 68.8485 118.532 71.2071C113.423 75.9749 106.564 78.8925 99.0245 78.8925C83.2293 78.8925 70.425 66.0882 70.425 50.293H54.4091C54.4091 74.9334 74.3841 94.9084 99.0245 94.9084C102.983 94.9084 106.821 94.3929 110.475 93.4254Z" fill="black"/>
<path d="M110.475 93.4254L110.686 93.5593L111.028 93.0203L110.411 93.1837L110.475 93.4254ZM118.532 71.2071L118.703 71.3899L118.768 71.3286L118.78 71.2396L118.532 71.2071ZM70.425 50.293H70.675V50.043H70.425V50.293ZM54.4091 50.293V50.043H54.1591V50.293H54.4091ZM64 119.25C83.6416 119.25 100.889 109 110.686 93.5593L110.264 93.2914C100.555 108.594 83.4633 118.75 64 118.75V119.25ZM8.75 64C8.75 94.5137 33.4863 119.25 64 119.25V118.75C33.7624 118.75 9.25 94.2376 9.25 64H8.75ZM64 8.75C33.4863 8.75 8.75 33.4863 8.75 64H9.25C9.25 33.7624 33.7624 9.25 64 9.25V8.75ZM119.25 64C119.25 33.4863 94.5137 8.75 64 8.75V9.25C94.2376 9.25 118.75 33.7624 118.75 64H119.25ZM118.78 71.2396C119.09 68.8702 119.25 66.4537 119.25 64H118.75C118.75 66.432 118.591 68.8268 118.284 71.1747L118.78 71.2396ZM99.0245 79.1425C106.63 79.1425 113.549 76.1992 118.703 71.3899L118.361 71.0244C113.297 75.7507 106.499 78.6425 99.0245 78.6425V79.1425ZM70.175 50.293C70.175 66.2262 83.0913 79.1425 99.0245 79.1425V78.6425C83.3674 78.6425 70.675 65.9501 70.675 50.293H70.175ZM54.4091 50.543H70.425V50.043H54.4091V50.543ZM99.0245 94.6584C74.5221 94.6584 54.6591 74.7954 54.6591 50.293H54.1591C54.1591 75.0715 74.246 95.1584 99.0245 95.1584V94.6584ZM110.411 93.1837C106.778 94.1457 102.961 94.6584 99.0245 94.6584V95.1584C103.005 95.1584 106.864 94.64 110.539 93.667L110.411 93.1837Z" fill="white"/>
<path d="M110.475 93.4254L110.686 93.5593L111.028 93.0203L110.411 93.1837L110.475 93.4254ZM118.532 71.2071L118.703 71.3899L118.768 71.3286L118.78 71.2396L118.532 71.2071ZM70.425 50.293H70.675V50.043H70.425V50.293ZM54.4091 50.293V50.043H54.1591V50.293H54.4091ZM64 119.25C83.6416 119.25 100.889 109 110.686 93.5593L110.264 93.2914C100.555 108.594 83.4633 118.75 64 118.75V119.25ZM8.75 64C8.75 94.5137 33.4863 119.25 64 119.25V118.75C33.7624 118.75 9.25 94.2376 9.25 64H8.75ZM64 8.75C33.4863 8.75 8.75 33.4863 8.75 64H9.25C9.25 33.7624 33.7624 9.25 64 9.25V8.75ZM119.25 64C119.25 33.4863 94.5137 8.75 64 8.75V9.25C94.2376 9.25 118.75 33.7624 118.75 64H119.25ZM118.78 71.2396C119.09 68.8702 119.25 66.4537 119.25 64H118.75C118.75 66.432 118.591 68.8268 118.284 71.1747L118.78 71.2396ZM99.0245 79.1425C106.63 79.1425 113.549 76.1992 118.703 71.3899L118.361 71.0244C113.297 75.7507 106.499 78.6425 99.0245 78.6425V79.1425ZM70.175 50.293C70.175 66.2262 83.0913 79.1425 99.0245 79.1425V78.6425C83.3674 78.6425 70.675 65.9501 70.675 50.293H70.175ZM54.4091 50.543H70.425V50.043H54.4091V50.543ZM99.0245 94.6584C74.5221 94.6584 54.6591 74.7954 54.6591 50.293H54.1591C54.1591 75.0715 74.246 95.1584 99.0245 95.1584V94.6584ZM110.411 93.1837C106.778 94.1457 102.961 94.6584 99.0245 94.6584V95.1584C103.005 95.1584 106.864 94.64 110.539 93.667L110.411 93.1837Z" fill="black" fill-opacity="0.2"/>
</svg>