<svg width="128" height="128" viewBox="0 0 128 128" fill="none" xmlns="http://www.w3.org/2000/svg">
<rect x="4" y="4.5" width="119" height="119" rx="59.5" fill="#EAD4EF"/>
<path fill-rule="evenodd" clip-rule="evenodd" d="M106.707 91.3564C97.6399 105.647 81.6777 115.133 63.5 115.133C35.2601 115.133 12.3672 92.2399 12.3672 64C12.3672 35.7601 35.2601 12.8672 63.5 12.8672C91.7399 12.8672 114.633 35.7601 114.633 64C114.633 66.2711 114.485 68.5076 114.198 70.7003C109.448 75.1329 103.072 77.8454 96.0618 77.8454C81.3772 77.8454 69.4732 65.9413 69.4732 51.2567H54.5835C54.5835 74.1647 73.1539 92.7351 96.0618 92.7351C99.7419 92.7351 103.31 92.2559 106.707 91.3564Z" fill="black"/>
<path d="M106.707 91.3564L106.918 91.4903L107.26 90.9513L106.643 91.1147L106.707 91.3564ZM114.198 70.7003L114.368 70.8831L114.434 70.8218L114.446 70.7328L114.198 70.7003ZM69.4732 51.2567H69.7232V51.0067H69.4732V51.2567ZM54.5835 51.2567V51.0067H54.3335V51.2567H54.5835ZM63.5 115.383C81.7668 115.383 97.8071 105.851 106.918 91.4903L106.496 91.2225C97.4727 105.444 81.5885 114.883 63.5 114.883V115.383ZM12.1172 64C12.1172 92.378 35.1221 115.383 63.5 115.383V114.883C35.3982 114.883 12.6172 92.1018 12.6172 64H12.1172ZM63.5 12.6172C35.1221 12.6172 12.1172 35.6221 12.1172 64H12.6172C12.6172 35.8982 35.3982 13.1172 63.5 13.1172V12.6172ZM114.883 64C114.883 35.6221 91.8779 12.6172 63.5 12.6172V13.1172C91.6018 13.1172 114.383 35.8982 114.383 64H114.883ZM114.446 70.7328C114.734 68.5293 114.883 66.282 114.883 64H114.383C114.383 66.2602 114.235 68.4859 113.95 70.6679L114.446 70.7328ZM96.0618 78.0954C103.137 78.0954 109.574 75.3572 114.368 70.8831L114.027 70.5176C109.321 74.9087 103.006 77.5954 96.0618 77.5954V78.0954ZM69.2232 51.2567C69.2232 66.0794 81.2392 78.0954 96.0618 78.0954V77.5954C81.5153 77.5954 69.7232 65.8033 69.7232 51.2567H69.2232ZM54.5835 51.5067H69.4732V51.0067H54.5835V51.5067ZM96.0618 92.4851C73.292 92.4851 54.8335 74.0266 54.8335 51.2567H54.3335C54.3335 74.3028 73.0158 92.9851 96.0618 92.9851V92.4851ZM106.643 91.1147C103.267 92.0087 99.7201 92.4851 96.0618 92.4851V92.9851C99.7637 92.9851 103.353 92.503 106.771 91.5981L106.643 91.1147Z" fill="white"/>
<path d="M106.707 91.3564L106.918 91.4903L107.26 90.9513L106.643 91.1147L106.707 91.3564ZM114.198 70.7003L114.368 70.8831L114.434 70.8218L114.446 70.7328L114.198 70.7003ZM69.4732 51.2567H69.7232V51.0067H69.4732V51.2567ZM54.5835 51.2567V51.0067H54.3335V51.2567H54.5835ZM63.5 115.383C81.7668 115.383 97.8071 105.851 106.918 91.4903L106.496 91.2225C97.4727 105.444 81.5885 114.883 63.5 114.883V115.383ZM12.1172 64C12.1172 92.378 35.1221 115.383 63.5 115.383V114.883C35.3982 114.883 12.6172 92.1018 12.6172 64H12.1172ZM63.5 12.6172C35.1221 12.6172 12.1172 35.6221 12.1172 64H12.6172C12.6172 35.8982 35.3982 13.1172 63.5 13.1172V12.6172ZM114.883 64C114.883 35.6221 91.8779 12.6172 63.5 12.6172V13.1172C91.6018 13.1172 114.383 35.8982 114.383 64H114.883ZM114.446 70.7328C114.734 68.5293 114.883 66.282 114.883 64H114.383C114.383 66.2602 114.235 68.4859 113.95 70.6679L114.446 70.7328ZM96.0618 78.0954C103.137 78.0954 109.574 75.3572 114.368 70.8831L114.027 70.5176C109.321 74.9087 103.006 77.5954 96.0618 77.5954V78.0954ZM69.2232 51.2567C69.2232 66.0794 81.2392 78.0954 96.0618 78.0954V77.5954C81.5153 77.5954 69.7232 65.8033 69.7232 51.2567H69.2232ZM54.5835 51.5067H69.4732V51.0067H54.5835V51.5067ZM96.0618 92.4851C73.292 92.4851 54.8335 74.0266 54.8335 51.2567H54.3335C54.3335 74.3028 73.0158 92.9851 96.0618 92.9851V92.4851ZM106.643 91.1147C103.267 92.0087 99.7201 92.4851 96.0618 92.4851V92.9851C99.7637 92.9851 103.353 92.503 106.771 91.5981L106.643 91.1147Z" fill="black" fill-opacity="0.2"/>
</svg>
