<svg width="1299" height="412" viewBox="0 0 1299 412" fill="none" xmlns="http://www.w3.org/2000/svg">
<path d="M363.941 299.766V145.194H378.262L453.503 249.757L462.823 264.987V145.194H481.008V299.766H466.688L387.809 188.611L381.899 178.609V299.766H363.941Z" fill="black"/>
<path d="M530.538 167.698C527.053 167.698 524.173 166.562 521.9 164.289C519.627 161.864 518.491 158.909 518.491 155.423C518.339 152.09 519.4 149.286 521.673 147.013C524.098 144.588 527.053 143.376 530.538 143.376C533.872 143.376 536.751 144.588 539.176 147.013C541.752 149.286 543.04 152.09 543.04 155.423C543.04 158.909 541.752 161.864 539.176 164.289C536.751 166.562 533.872 167.698 530.538 167.698ZM521.673 299.766V189.52H539.858V299.766H521.673Z" fill="black"/>
<path d="M620.164 201.795C608.95 201.795 600.691 205.886 595.387 214.07C590.083 222.101 587.355 232.103 587.203 244.074C587.203 256.501 589.704 266.881 594.705 275.216C599.706 283.399 607.889 287.491 619.255 287.491C626.68 287.491 632.288 286.733 636.076 285.218C639.865 283.702 643.881 281.884 648.124 279.762L653.579 292.946C648.882 295.977 643.199 298.326 636.531 299.993C629.863 301.811 624.18 302.721 619.482 302.721C602.812 302.721 590.159 297.265 581.521 286.354C573.034 275.443 568.791 261.426 568.791 244.302C568.943 227.481 573.413 213.691 582.203 202.931C591.144 192.02 603.949 186.565 620.619 186.565C625.013 186.565 630.545 187.474 637.213 189.293C644.032 190.96 649.791 193.384 654.489 196.567L649.033 209.523C644.79 207.553 640.698 205.811 636.758 204.295C632.969 202.628 627.438 201.795 620.164 201.795Z" fill="black"/>
<path d="M773.999 247.484H693.984C694.439 259.153 697.546 268.851 703.304 276.58C709.063 284.157 718.156 287.945 730.582 287.945C738.008 287.945 743.994 287.188 748.54 285.672C753.238 284.005 757.708 282.187 761.952 280.217L767.634 293.401C762.937 296.583 756.799 298.856 749.222 300.22C741.645 301.736 735.583 302.493 731.037 302.493C712.7 302.493 698.834 297.114 689.438 286.354C680.043 275.443 675.345 261.426 675.345 244.302C675.496 227.632 679.967 213.842 688.756 202.931C697.697 192.02 710.351 186.565 726.718 186.565C743.842 186.565 755.966 192.627 763.088 204.75C770.362 216.721 773.999 230.966 773.999 247.484ZM756.269 235.209C755.056 225.359 752.101 217.328 747.403 211.114C742.706 204.901 735.583 201.795 726.036 201.795C716.489 201.795 709.063 204.901 703.759 211.114C698.607 217.328 695.5 225.359 694.439 235.209H756.269Z" fill="black"/>
<path d="M859.77 299.766H803.396V145.194H860.679C884.471 145.194 902.126 152.393 913.643 166.789C925.16 181.185 930.919 199.446 930.919 221.571C930.919 245.514 924.706 264.532 912.279 278.626C899.853 292.719 882.35 299.766 859.77 299.766ZM860.906 170.199H832.719V274.989H859.315C871.742 274.989 881.668 270.897 889.093 262.714C896.67 254.531 900.459 240.816 900.459 221.571C900.459 205.507 897.277 192.93 890.912 183.837C884.547 174.745 874.545 170.199 860.906 170.199Z" fill="black"/>
<path d="M1015.28 302.493C996.187 302.493 981.108 297.265 970.046 286.809C959.135 276.353 953.679 262.335 953.679 244.756C953.679 227.178 958.604 213.085 968.454 202.477C978.456 191.869 992.019 186.565 1009.14 186.565C1026.42 186.565 1039.07 192.323 1047.11 203.841C1055.29 215.206 1059.38 228.693 1059.38 244.302V253.394H985.048C986.412 260.668 989.746 266.502 995.05 270.897C1000.35 275.14 1007.33 277.262 1015.96 277.262C1020.96 277.262 1025.43 276.656 1029.37 275.443C1033.47 274.079 1038.16 272.185 1043.47 269.761L1052.11 291.128C1046.95 295.068 1040.66 297.947 1033.24 299.766C1025.97 301.584 1019.98 302.493 1015.28 302.493ZM1031.42 233.618C1029.91 226.193 1027.18 220.737 1023.24 217.252C1019.3 213.615 1014.37 211.796 1008.46 211.796C1002.4 211.796 997.323 213.691 993.232 217.479C989.14 221.116 986.488 226.496 985.276 233.618H1031.42Z" fill="black"/>
<path d="M1134.6 211.796C1126.27 211.796 1119.75 214.979 1115.05 221.343C1110.36 227.557 1108.01 235.361 1108.01 244.756C1108.01 254.303 1110.36 262.108 1115.05 268.169C1119.75 274.231 1126.27 277.262 1134.6 277.262C1139.76 277.262 1144.38 276.656 1148.47 275.443C1152.71 274.079 1157.49 272.185 1162.79 269.761L1171.2 291.128C1166.05 295.068 1159.76 297.947 1152.33 299.766C1145.06 301.584 1139.07 302.493 1134.38 302.493C1116.49 302.493 1102.55 297.265 1092.55 286.809C1082.55 276.353 1077.55 262.335 1077.55 244.756C1077.55 227.178 1082.55 213.085 1092.55 202.477C1102.55 191.869 1116.49 186.565 1134.38 186.565C1139.07 186.565 1144.98 187.55 1152.11 189.52C1159.38 191.49 1165.75 194.369 1171.2 198.158L1162.79 219.298C1157.49 216.873 1152.71 215.055 1148.47 213.842C1144.38 212.478 1139.76 211.796 1134.6 211.796Z" fill="black"/>
<path d="M1223.56 139.284V229.754L1270.84 186.338L1287.43 207.25L1256.52 234.3L1296.98 299.766H1263.11L1235.38 253.167L1223.56 263.623V299.766H1194.23V141.785L1223.56 139.284Z" fill="black"/>
<path fill-rule="evenodd" clip-rule="evenodd" d="M262.588 282.008C237.394 321.715 193.043 348.069 142.537 348.069C64.0731 348.069 0.465485 284.463 0.465485 206C0.465485 127.537 64.0731 63.931 142.537 63.931C221.001 63.931 284.609 127.537 284.609 206C284.609 212.31 284.197 218.524 283.4 224.616C270.202 236.932 252.486 244.468 233.01 244.468C192.209 244.468 159.134 211.394 159.134 170.594H117.763C117.763 234.242 169.36 285.838 233.01 285.838C243.235 285.838 253.149 284.507 262.588 282.008Z" fill="black"/>
</svg>